<mxfile host="app.diagrams.net" modified="2024-06-12T03:47:18.520Z" agent="Mozilla/5.0 (Windows NT 10.0; Win64; x64) AppleWebKit/537.36 (KHTML, like Gecko) Chrome/125.0.0.0 Safari/537.36" etag="QGeJJ9v9lH5HlsuadgJS" version="24.5.3" type="google">
  <diagram name="Page-1" id="BwYCdPPEf-IXSAP78cgI">
    <mxGraphModel grid="0" page="1" gridSize="10" guides="1" tooltips="1" connect="1" arrows="1" fold="1" pageScale="1" pageWidth="850" pageHeight="1100" background="#ffffff" math="0" shadow="0">
      <root>
        <mxCell id="0" />
        <mxCell id="1" parent="0" />
        <mxCell id="rzatWFEt_HZhDFfGI8mr-32" style="edgeStyle=orthogonalEdgeStyle;rounded=0;orthogonalLoop=1;jettySize=auto;html=1;" edge="1" parent="1" source="rzatWFEt_HZhDFfGI8mr-9">
          <mxGeometry relative="1" as="geometry">
            <mxPoint x="75" y="100" as="targetPoint" />
          </mxGeometry>
        </mxCell>
        <mxCell id="rzatWFEt_HZhDFfGI8mr-9" value="Internet" style="image;aspect=fixed;perimeter=ellipsePerimeter;html=1;align=center;shadow=0;dashed=0;spacingTop=3;image=img/lib/active_directory/internet_globe.svg;" vertex="1" parent="1">
          <mxGeometry x="50" y="10" width="50" height="50" as="geometry" />
        </mxCell>
        <mxCell id="rzatWFEt_HZhDFfGI8mr-12" value="Server 1" style="image;html=1;image=img/lib/clip_art/computers/Server_Rack_Partial_128x128.png" vertex="1" parent="1">
          <mxGeometry x="370" width="80" height="80" as="geometry" />
        </mxCell>
        <mxCell id="rzatWFEt_HZhDFfGI8mr-34" style="edgeStyle=orthogonalEdgeStyle;rounded=0;orthogonalLoop=1;jettySize=auto;html=1;" edge="1" parent="1" source="rzatWFEt_HZhDFfGI8mr-13">
          <mxGeometry relative="1" as="geometry">
            <mxPoint x="77.5" y="190" as="targetPoint" />
          </mxGeometry>
        </mxCell>
        <mxCell id="rzatWFEt_HZhDFfGI8mr-13" value="firewall" style="image;aspect=fixed;html=1;points=[];align=center;fontSize=12;image=img/lib/azure2/networking/Azure_Firewall_Manager.svg;" vertex="1" parent="1">
          <mxGeometry x="60" y="110" width="35" height="30" as="geometry" />
        </mxCell>
        <mxCell id="rzatWFEt_HZhDFfGI8mr-36" style="edgeStyle=orthogonalEdgeStyle;rounded=0;orthogonalLoop=1;jettySize=auto;html=1;" edge="1" parent="1" source="rzatWFEt_HZhDFfGI8mr-14">
          <mxGeometry relative="1" as="geometry">
            <mxPoint x="240" y="251" as="targetPoint" />
          </mxGeometry>
        </mxCell>
        <mxCell id="rzatWFEt_HZhDFfGI8mr-37" style="edgeStyle=orthogonalEdgeStyle;rounded=0;orthogonalLoop=1;jettySize=auto;html=1;" edge="1" parent="1" source="rzatWFEt_HZhDFfGI8mr-14">
          <mxGeometry relative="1" as="geometry">
            <mxPoint x="400" y="90" as="targetPoint" />
          </mxGeometry>
        </mxCell>
        <mxCell id="rzatWFEt_HZhDFfGI8mr-38" style="edgeStyle=orthogonalEdgeStyle;rounded=0;orthogonalLoop=1;jettySize=auto;html=1;" edge="1" parent="1" source="rzatWFEt_HZhDFfGI8mr-14" target="rzatWFEt_HZhDFfGI8mr-39">
          <mxGeometry relative="1" as="geometry">
            <mxPoint x="520" y="90" as="targetPoint" />
          </mxGeometry>
        </mxCell>
        <mxCell id="rzatWFEt_HZhDFfGI8mr-14" value="Application Load Balancer" style="sketch=0;outlineConnect=0;fontColor=#232F3E;gradientColor=none;strokeColor=#ffffff;fillColor=#232F3E;dashed=0;verticalLabelPosition=middle;verticalAlign=bottom;align=center;html=1;whiteSpace=wrap;fontSize=10;fontStyle=1;spacing=3;shape=mxgraph.aws4.productIcon;prIcon=mxgraph.aws4.application_load_balancer;" vertex="1" parent="1">
          <mxGeometry x="210" y="100" width="60" height="100" as="geometry" />
        </mxCell>
        <mxCell id="rzatWFEt_HZhDFfGI8mr-15" value="" style="shape=mxgraph.cisco.computers_and_peripherals.upc;html=1;pointerEvents=1;dashed=0;fillColor=#036897;strokeColor=#ffffff;strokeWidth=2;verticalLabelPosition=bottom;verticalAlign=top;align=center;outlineConnect=0;" vertex="1" parent="1">
          <mxGeometry x="530" y="150" width="91" height="86" as="geometry" />
        </mxCell>
        <mxCell id="rzatWFEt_HZhDFfGI8mr-16" value="" style="shape=mxgraph.cisco.computers_and_peripherals.terminal;html=1;pointerEvents=1;dashed=0;fillColor=#036897;strokeColor=#ffffff;strokeWidth=2;verticalLabelPosition=bottom;verticalAlign=top;align=center;outlineConnect=0;" vertex="1" parent="1">
          <mxGeometry x="479" y="305" width="61" height="54" as="geometry" />
        </mxCell>
        <mxCell id="rzatWFEt_HZhDFfGI8mr-17" value="" style="shape=mxgraph.cisco.computers_and_peripherals.pc;html=1;pointerEvents=1;dashed=0;fillColor=#036897;strokeColor=#ffffff;strokeWidth=2;verticalLabelPosition=bottom;verticalAlign=top;align=center;outlineConnect=0;" vertex="1" parent="1">
          <mxGeometry x="602" y="294" width="78" height="70" as="geometry" />
        </mxCell>
        <mxCell id="rzatWFEt_HZhDFfGI8mr-18" value="" style="shape=mxgraph.cisco.computers_and_peripherals.web_browser;html=1;pointerEvents=1;dashed=0;fillColor=#036897;strokeColor=#ffffff;strokeWidth=2;verticalLabelPosition=bottom;verticalAlign=top;align=center;outlineConnect=0;" vertex="1" parent="1">
          <mxGeometry x="356" y="300" width="62" height="64" as="geometry" />
        </mxCell>
        <mxCell id="rzatWFEt_HZhDFfGI8mr-19" value="" style="shape=mxgraph.cisco.computers_and_peripherals.terminal;html=1;pointerEvents=1;dashed=0;fillColor=#036897;strokeColor=#ffffff;strokeWidth=2;verticalLabelPosition=bottom;verticalAlign=top;align=center;outlineConnect=0;" vertex="1" parent="1">
          <mxGeometry x="418" y="173" width="61" height="54" as="geometry" />
        </mxCell>
        <mxCell id="rzatWFEt_HZhDFfGI8mr-20" value="" style="shape=mxgraph.cisco.computers_and_peripherals.terminal;html=1;pointerEvents=1;dashed=0;fillColor=#036897;strokeColor=#ffffff;strokeWidth=2;verticalLabelPosition=bottom;verticalAlign=top;align=center;outlineConnect=0;" vertex="1" parent="1">
          <mxGeometry x="680" y="180" width="61" height="54" as="geometry" />
        </mxCell>
        <mxCell id="rzatWFEt_HZhDFfGI8mr-22" value="" style="endArrow=classic;html=1;rounded=0;" edge="1" parent="1">
          <mxGeometry width="50" height="50" relative="1" as="geometry">
            <mxPoint x="750" y="274" as="sourcePoint" />
            <mxPoint x="321" y="274" as="targetPoint" />
            <Array as="points" />
          </mxGeometry>
        </mxCell>
        <mxCell id="rzatWFEt_HZhDFfGI8mr-24" value="" style="endArrow=none;html=1;rounded=0;" edge="1" parent="1">
          <mxGeometry width="50" height="50" relative="1" as="geometry">
            <mxPoint x="400" y="294" as="sourcePoint" />
            <mxPoint x="421" y="275" as="targetPoint" />
            <Array as="points">
              <mxPoint x="400" y="294" />
            </Array>
          </mxGeometry>
        </mxCell>
        <mxCell id="rzatWFEt_HZhDFfGI8mr-25" value="" style="endArrow=none;html=1;rounded=0;" edge="1" parent="1">
          <mxGeometry width="50" height="50" relative="1" as="geometry">
            <mxPoint x="505" y="300" as="sourcePoint" />
            <mxPoint x="528" y="275" as="targetPoint" />
          </mxGeometry>
        </mxCell>
        <mxCell id="rzatWFEt_HZhDFfGI8mr-26" value="" style="endArrow=none;html=1;rounded=0;" edge="1" parent="1">
          <mxGeometry width="50" height="50" relative="1" as="geometry">
            <mxPoint x="650" y="294" as="sourcePoint" />
            <mxPoint x="671" y="274" as="targetPoint" />
          </mxGeometry>
        </mxCell>
        <mxCell id="6CDLf0Fk9echdoMnOByh-20" style="edgeStyle=orthogonalEdgeStyle;rounded=0;orthogonalLoop=1;jettySize=auto;html=1;exitX=1;exitY=1;exitDx=0;exitDy=0;" edge="1" parent="1" source="rzatWFEt_HZhDFfGI8mr-33">
          <mxGeometry relative="1" as="geometry">
            <mxPoint x="206.00003051757812" y="272.66668701171875" as="targetPoint" />
            <Array as="points">
              <mxPoint x="111" y="273" />
            </Array>
          </mxGeometry>
        </mxCell>
        <mxCell id="rzatWFEt_HZhDFfGI8mr-33" value="Router" style="image;html=1;image=img/lib/clip_art/networking/Router_Icon_128x128.png" vertex="1" parent="1">
          <mxGeometry x="50" y="191" width="61" height="72" as="geometry" />
        </mxCell>
        <mxCell id="rzatWFEt_HZhDFfGI8mr-39" value="Server 2" style="image;html=1;image=img/lib/clip_art/computers/Server_Rack_128x128.png" vertex="1" parent="1">
          <mxGeometry x="490" width="80" height="80" as="geometry" />
        </mxCell>
        <mxCell id="6CDLf0Fk9echdoMnOByh-7" value="" style="endArrow=none;html=1;rounded=0;" edge="1" parent="1">
          <mxGeometry width="50" height="50" relative="1" as="geometry">
            <mxPoint x="404" y="264" as="sourcePoint" />
            <mxPoint x="437" y="227" as="targetPoint" />
          </mxGeometry>
        </mxCell>
        <mxCell id="6CDLf0Fk9echdoMnOByh-8" value="" style="endArrow=none;html=1;rounded=0;" edge="1" parent="1">
          <mxGeometry width="50" height="50" relative="1" as="geometry">
            <mxPoint x="506" y="264" as="sourcePoint" />
            <mxPoint x="535" y="236" as="targetPoint" />
          </mxGeometry>
        </mxCell>
        <mxCell id="6CDLf0Fk9echdoMnOByh-9" value="" style="endArrow=none;html=1;rounded=0;" edge="1" parent="1">
          <mxGeometry width="50" height="50" relative="1" as="geometry">
            <mxPoint x="680" y="264" as="sourcePoint" />
            <mxPoint x="707" y="238" as="targetPoint" />
          </mxGeometry>
        </mxCell>
        <mxCell id="6CDLf0Fk9echdoMnOByh-11" value="" style="endArrow=classic;html=1;rounded=0;" edge="1" parent="1">
          <mxGeometry width="50" height="50" relative="1" as="geometry">
            <mxPoint x="351" y="262" as="sourcePoint" />
            <mxPoint x="351" y="227" as="targetPoint" />
          </mxGeometry>
        </mxCell>
        <mxCell id="6CDLf0Fk9echdoMnOByh-12" value="Switch 2" style="image;html=1;image=img/lib/clip_art/networking/Switch_128x128.png" vertex="1" parent="1">
          <mxGeometry x="211" y="251" width="59" height="47" as="geometry" />
        </mxCell>
        <mxCell id="6CDLf0Fk9echdoMnOByh-13" value="" style="endArrow=none;html=1;rounded=0;" edge="1" parent="1">
          <mxGeometry width="50" height="50" relative="1" as="geometry">
            <mxPoint x="751" y="263" as="sourcePoint" />
            <mxPoint x="351" y="263" as="targetPoint" />
          </mxGeometry>
        </mxCell>
        <mxCell id="6CDLf0Fk9echdoMnOByh-16" value="Switch 1" style="image;html=1;image=img/lib/clip_art/networking/Switch_128x128.png" vertex="1" parent="1">
          <mxGeometry x="327" y="171" width="49" height="39" as="geometry" />
        </mxCell>
        <mxCell id="6CDLf0Fk9echdoMnOByh-17" style="edgeStyle=orthogonalEdgeStyle;rounded=0;orthogonalLoop=1;jettySize=auto;html=1;exitX=1;exitY=0;exitDx=0;exitDy=0;entryX=-0.156;entryY=0.675;entryDx=0;entryDy=0;entryPerimeter=0;" edge="1" parent="1" source="rzatWFEt_HZhDFfGI8mr-33" target="6CDLf0Fk9echdoMnOByh-16">
          <mxGeometry relative="1" as="geometry">
            <Array as="points">
              <mxPoint x="110" y="197" />
            </Array>
          </mxGeometry>
        </mxCell>
        <mxCell id="6CDLf0Fk9echdoMnOByh-18" style="edgeStyle=orthogonalEdgeStyle;rounded=0;orthogonalLoop=1;jettySize=auto;html=1;exitX=0.5;exitY=1;exitDx=0;exitDy=0;" edge="1" parent="1" source="6CDLf0Fk9echdoMnOByh-12" target="6CDLf0Fk9echdoMnOByh-12">
          <mxGeometry relative="1" as="geometry" />
        </mxCell>
      </root>
    </mxGraphModel>
  </diagram>
</mxfile>
